<?xml version="1.0" standalone="no"?>
<!DOCTYPE svg PUBLIC "-//W3C//DTD SVG 1.1//EN" "http://www.w3.org/Graphics/SVG/1.1/DTD/svg11.dtd">
<!--Generator: Xara Designer (www.xara.com), SVG filter version: 3.0.2.3-->
<svg stroke-width="0.501" stroke-linejoin="bevel" fill-rule="evenodd" xmlns:xlink="http://www.w3.org/1999/xlink" xmlns="http://www.w3.org/2000/svg" version="1.1" overflow="visible" width="161.292pt" height="396.851pt" viewBox="0 0 161.292 396.851">
 <defs>
  <marker id="DefaultArrow2" markerUnits="strokeWidth" viewBox="0 0 1 1" markerWidth="1" markerHeight="1" overflow="visible" orient="auto">
   <!-- REF_ARROW_STRAIGHT (-2) -->
   <g transform="scale(0.0092592592)">
    <!-- 1/108 -->
    <path d="M -9 54 L -9 -54 L 117 0 z"/>
   </g>
  </marker>
  <marker id="DefaultArrow3" markerUnits="strokeWidth" viewBox="0 0 1 1" markerWidth="1" markerHeight="1" overflow="visible" orient="auto">
   <!-- REF_ARROW_ANGLED -->
   <g transform="scale(0.0092592592)">
    <path d="M -27 54 L -9 0 L -27 -54 L 135 0 z"/>
   </g>
  </marker>
  <marker id="DefaultArrow4" markerUnits="strokeWidth" viewBox="0 0 1 1" markerWidth="1" markerHeight="1" overflow="visible" orient="auto">
   <!-- REF_ARROW_ROUNDED -->
   <g transform="scale(0.0092592592)">
    <path d="M -9,0 L -9,-45 C -9,-51.708 2.808,-56.580 9,-54 L 117,-9 C 120.916,-7.369 126.000,-4.242 126,0 C 126,4.242 120.916,7.369 117,9 L 9,54 C 2.808,56.580 -9,51.708 -9,45 z"/>
   </g>
  </marker>
  <marker id="DefaultArrow5" markerUnits="strokeWidth" viewBox="0 0 1 1" markerWidth="1" markerHeight="1" overflow="visible" orient="auto">
   <!-- REF_ARROW_SPOT -->
   <g transform="scale(0.0092592592)">
    <path d="M -54, 0 C -54,29.807 -29.807,54 0,54 C 29.807,54 54,29.807 54,0 C 54,-29.807 29.807,-54 0,-54 C -29.807,-54 -54,-29.807 -54,0 z"/>
   </g>
  </marker>
  <marker id="DefaultArrow6" markerUnits="strokeWidth" viewBox="0 0 1 1" markerWidth="1" markerHeight="1" overflow="visible" orient="auto">
   <!-- REF_ARROW_DIAMOND -->
   <g transform="scale(0.0092592592)">
    <path d="M -63,0 L 0,63 L 63,0 L 0,-63 z"/>
   </g>
  </marker>
  <marker id="DefaultArrow7" markerUnits="strokeWidth" viewBox="0 0 1 1" markerWidth="1" markerHeight="1" overflow="visible" orient="auto">
   <!-- REF_ARROW_FEATHER -->
   <g transform="scale(0.0092592592)">
    <path d="M 18,-54 L 108,-54 L 63,0 L 108,54 L 18, 54 L -36,0 z"/>
   </g>
  </marker>
  <marker id="DefaultArrow8" markerUnits="strokeWidth" viewBox="0 0 1 1" markerWidth="1" markerHeight="1" overflow="visible" orient="auto">
   <!-- REF_ARROW_FEATHER2 -->
   <g transform="scale(0.0092592592)">
    <path d="M -36,0 L 18,-54 L 54,-54 L 18,-18 L 27,-18 L 63,-54 L 99,-54 L 63,-18 L 72,-18 L 108,-54 L 144,-54 L 90,0 L 144,54 L 108,54 L 72,18 L 63,18 L 99,54 L 63,54 L 27,18 L 18,18 L 54,54 L 18,54 z"/>
   </g>
  </marker>
  <marker id="DefaultArrow9" markerUnits="strokeWidth" viewBox="0 0 1 1" markerWidth="1" markerHeight="1" overflow="visible" orient="auto">
   <!-- REF_ARROW_HOLLOWDIAMOND -->
   <g transform="scale(0.0092592592)">
    <path d="M 0,45 L -45,0 L 0, -45 L 45, 0 z M 0, 63 L-63, 0 L 0, -63 L 63, 0 z"/>
   </g>
  </marker>
  <filter id="StainedFilter">
   <feBlend mode="multiply" in2="BackgroundImage" in="SourceGraphic" result="blend"/>
   <feComposite in="blend" in2="SourceAlpha" operator="in" result="comp"/>
  </filter>
  <filter id="BleachFilter">
   <feBlend mode="screen" in2="BackgroundImage" in="SourceGraphic" result="blend"/>
   <feComposite in="blend" in2="SourceAlpha" operator="in" result="comp"/>
  </filter>
  <filter id="InvertTransparencyBitmapFilter">
   <feComponentTransfer>
    <feFuncR type="gamma" amplitude="1.055" exponent=".416666666" offset="-0.055"/>
    <feFuncG type="gamma" amplitude="1.055" exponent=".416666666" offset="-0.055"/>
    <feFuncB type="gamma" amplitude="1.055" exponent=".416666666" offset="-0.055"/>
   </feComponentTransfer>
   <feComponentTransfer>
    <feFuncR type="linear" slope="-1" intercept="1"/>
    <feFuncG type="linear" slope="-1" intercept="1"/>
    <feFuncB type="linear" slope="-1" intercept="1"/>
    <feFuncA type="linear" slope="1" intercept="0"/>
   </feComponentTransfer>
   <feComponentTransfer>
    <feFuncR type="gamma" amplitude="1" exponent="2.4" offset="0"/>
    <feFuncG type="gamma" amplitude="1" exponent="2.4" offset="0"/>
    <feFuncB type="gamma" amplitude="1" exponent="2.4" offset="0"/>
   </feComponentTransfer>
  </filter>
 </defs>
 <g id="Document" fill="none" stroke="black" font-family="Times New Roman" font-size="16" transform="scale(1 -1)">
  <g id="Spread" transform="translate(0 -396.851)">
   <g id="Layer 1">
    <path d="M -9470.18,9013.52 L -5629.7,9013.52 L -5629.7,9961.89 L -9470.18,9961.89 Z" stroke="none" fill="#182738" stroke-width="0.636" marker-start="none" marker-end="none" stroke-miterlimit="79.8403193612775"/>
    <path d="M -9194.69,9348.17 L -9091.47,9334.71 C -9091.47,9325.35 -9089.41,9318.33 -9086.68,9313.65 C -9083.26,9308.97 -9077.79,9304.87 -9070.27,9301.95 C -9062.75,9298.44 -9052.5,9296.68 -9039.51,9296.68 C -9016.95,9296.68 -8999.86,9300.19 -8986.19,9307.8 C -8976.62,9313.65 -8968.42,9322.42 -8962.26,9335.3 C -8958.16,9342.9 -8953.38,9360.45 -8947.23,9386.78 L -8943.81,9401.99 C -8979.35,9376.83 -9016.27,9364.55 -9053.87,9364.55 C -9089.41,9364.55 -9118.13,9375.67 -9140.68,9397.9 C -9163.93,9420.13 -9174.86,9452.89 -9174.86,9495.6 C -9174.86,9533.63 -9167.34,9568.73 -9151.62,9600.33 C -9136.58,9631.92 -9114.71,9655.91 -9086.68,9671.7 C -9059.33,9688.08 -9030.62,9696.27 -9001.23,9696.27 C -8964.32,9696.27 -8896.64,9678.72 -8880.23,9648.3 L -8859.04,9688.08 L -8785.21,9688.08 L -8842.63,9418.37 C -8852.89,9375.67 -8861.77,9344.66 -8868.61,9326.52 C -8876.13,9308.38 -8884.33,9293.76 -8893.9,9282.64 C -8902.79,9271.53 -8914.41,9262.75 -8928.77,9255.14 C -8943.12,9248.12 -8959.53,9242.86 -8978.67,9239.35 C -8997.81,9236.42 -9018.32,9234.67 -9040.88,9234.67 C -9092.15,9234.67 -9130.43,9242.27 -9156.41,9258.07 C -9182.38,9273.28 -9195.37,9299.61 -9195.37,9335.3 C -9195.37,9339.39 -9195.37,9343.49 -9194.69,9348.17 Z M -9079.84,9504.38 C -9079.84,9479.81 -9073.69,9461.08 -9061.39,9448.21 C -9049.08,9435.34 -9033.36,9428.91 -9014.9,9428.91 C -8997.81,9428.91 -8980.72,9434.76 -8964.32,9446.46 C -8947.91,9458.16 -8935.6,9474.54 -8926.72,9495.6 C -8917.83,9517.25 -8913.73,9537.73 -8913.73,9557.62 C -8913.73,9580.43 -8920.56,9599.16 -8934.92,9613.2 C -8949.27,9627.24 -8965.68,9634.26 -8984.14,9634.26 C -9001.91,9634.26 -9017.64,9627.82 -9032.67,9615.54 C -9047.03,9603.25 -9059.33,9583.94 -9068.91,9558.2 C -9075.74,9538.31 -9079.84,9520.76 -9079.84,9504.38 Z" stroke="none" fill="#ffffff" stroke-width="0.636" fill-rule="nonzero" marker-start="none" marker-end="none" stroke-miterlimit="79.8403193612775"/>
    <text xml:space="preserve" transform="translate(-8801.81 9357.39) scale(1 -1) scale(1.16943 1)" stroke="none" fill="#ffffff" font-family="Arial" font-weight="bold" font-style="italic" font-size="626.731"><tspan x="0" y="0">l</tspan></text>
    <text xml:space="preserve" transform="translate(-8628.23 9357.39) scale(1 -1) scale(1.16943 1)" stroke="none" fill="#ffffff" font-family="Arial" font-weight="bold" font-style="italic" font-size="626.731"><tspan x="0" y="0">o</tspan></text>
    <text xml:space="preserve" transform="translate(-8223.19 9357.39) scale(1 -1) scale(1.16943 1)" stroke="none" fill="#ffffff" font-family="Arial" font-weight="bold" font-style="italic" font-size="626.731"><tspan x="0" y="0">s</tspan></text>
    <text xml:space="preserve" transform="translate(-7856.73 9357.39) scale(1 -1) scale(1.16943 1)" stroke="none" fill="#ffffff" font-family="Arial" font-weight="bold" font-style="italic" font-size="626.731"><tspan x="0" y="0">s</tspan></text>
    <text xml:space="preserve" transform="translate(-7490.27 9357.39) scale(1 -1) scale(1.16943 1)" stroke="none" fill="#ffffff" font-family="Arial" font-weight="bold" font-style="italic" font-size="626.731"><tspan x="0" y="0">k</tspan></text>
    <text xml:space="preserve" transform="translate(-7123.81 9357.39) scale(1 -1) scale(1.16943 1)" stroke="none" fill="#ffffff" font-family="Arial" font-weight="bold" font-style="italic" font-size="626.731"><tspan x="0" y="0">o</tspan></text>
    <text xml:space="preserve" transform="translate(-6718.78 9357.39) scale(1 -1) scale(1.16943 1)" stroke="none" fill="#ffffff" font-family="Arial" font-weight="bold" font-style="italic" font-size="626.731"><tspan x="0" y="0">d</tspan></text>
    <path d="M -5926.38,9499.7 L -6171.8,9499.7 C -6171.8,9496.19 -6171.8,9493.85 -6171.8,9492.09 C -6171.8,9470.44 -6164.96,9452.89 -6151.29,9439.44 C -6137.62,9426.57 -6120.53,9421.88 -6100.7,9419.54 C -6069.94,9416.62 -6026.87,9438.85 -6016.62,9469.27 L -5933.9,9469.86 C -5954.41,9427.74 -5977.65,9397.9 -6005.68,9380.93 C -6033.71,9364.55 -6065.84,9357.53 -6101.39,9357.53 C -6149.92,9357.53 -6189.57,9371.57 -6219.65,9399.07 C -6250.41,9426.57 -6265.45,9462.84 -6265.45,9507.89 C -6265.45,9552.35 -6251.78,9591.55 -6224.44,9626.07 C -6186.84,9672.87 -6133.52,9696.27 -6064.47,9696.27 C -6020.04,9696.27 -5985.17,9683.99 -5959.2,9659.42 C -5932.54,9634.84 -5919.55,9600.91 -5919.55,9557.03 C -5919.55,9535.97 -5922.28,9516.66 -5926.38,9499.7 Z M -6009.1,9552.94 C -6008.42,9556.45 -6008.42,9559.37 -6008.42,9561.71 C -6008.42,9585.7 -6014.57,9603.84 -6026.87,9616.12 C -6038.49,9627.82 -6054.9,9634.26 -6074.73,9634.26 C -6095.23,9634.26 -6113.01,9627.24 -6129.41,9613.2 C -6145.14,9599.74 -6156.07,9579.26 -6161.54,9552.94 Z" stroke="none" fill="#ffffff" stroke-width="0.636" fill-rule="nonzero" marker-start="none" marker-end="none" stroke-miterlimit="79.8403193612775"/>
    <path d="M 160.739,0.967 L 160.739,396.452 L -0.659,396.452 L -0.659,0.967 Z" stroke="none" stroke-width="0.542" stroke-linejoin="round" stroke-linecap="round" marker-start="none" marker-end="none"/>
   </g>
   <g id="Imported Layer 1">
    <g id="Group" stroke="none">
     <path d="M 25.18,305.487 C 30.949,311.185 40.315,311.185 46.084,305.487 C 51.853,299.789 51.853,290.538 46.084,284.84 C 40.315,279.142 30.949,279.142 25.18,284.84 C 19.411,290.538 19.411,299.789 25.18,305.487 Z" fill="#b0851f" stroke-width="0.01" marker-start="none" marker-end="none" stroke-miterlimit="79.8403193612775"/>
     <path d="M 24.173,295.258 C 24.173,289.089 29.303,284.092 35.638,284.092 C 41.976,284.092 47.104,289.089 47.104,295.258 C 47.104,301.433 41.976,306.437 35.638,306.437 C 29.303,306.437 24.173,301.433 24.173,295.258 Z" fill="#e7e7e8" stroke-width="0.01" fill-rule="nonzero" marker-start="none" marker-end="none" stroke-miterlimit="79.8403193612775"/>
     <path d="M 24.384,295.258 C 24.384,289.206 29.426,284.307 35.638,284.307 C 41.855,284.307 46.873,289.206 46.873,295.258 C 46.873,301.313 41.855,306.211 35.638,306.211 C 29.426,306.211 24.384,301.313 24.384,295.258 Z" fill="#166733" stroke-width="0.01" fill-rule="nonzero" marker-start="none" marker-end="none" stroke-miterlimit="79.8403193612775"/>
     <path d="M 41.946,301.335 L 40.848,302.008 C 40.364,302.304 39.734,302.143 39.444,301.648 L 39.115,301.088 C 39.048,300.975 39.085,300.826 39.196,300.757 L 39.321,300.68 L 38.963,300.367 C 38.036,299.557 36.871,300.102 35.954,298.541 C 35.831,298.339 35.817,298.101 35.891,297.892 C 35.761,297.854 35.638,297.791 35.529,297.702 C 35.363,299.162 34.255,299.337 33.889,300.455 C 33.889,300.455 33.889,300.455 33.889,300.455 L 33.74,300.912 L 33.886,300.912 C 34.018,300.912 34.124,301.021 34.124,301.154 L 34.124,301.806 C 34.124,302.382 33.663,302.85 33.099,302.85 L 31.818,302.85 C 31.255,302.85 30.795,302.382 30.795,301.806 L 30.795,301.154 C 30.795,301.021 30.903,300.912 31.034,300.912 L 31.18,300.912 L 31.03,300.455 C 30.644,299.275 29.37,299.131 29.37,297.313 C 29.37,297.075 29.477,296.863 29.646,296.724 C 29.475,296.541 29.37,296.295 29.37,296.024 L 29.37,294.661 C 29.37,294.352 29.506,294.075 29.72,293.888 C 29.506,293.701 29.37,293.427 29.37,293.116 L 29.37,291.754 C 29.37,291.426 29.524,291.134 29.761,290.946 C 29.521,290.739 29.37,290.425 29.37,290.079 L 29.37,287.613 C 29.37,286.949 29.888,286.397 30.528,286.381 C 30.926,286.37 31.283,286.558 31.511,286.865 C 31.988,286.219 32.932,286.219 33.411,286.865 C 33.751,286.404 34.346,286.26 34.837,286.485 C 35.342,286.248 36.028,286.421 36.358,286.985 L 37.603,289.098 C 37.779,289.397 37.804,289.745 37.705,290.05 C 38.003,290.084 38.284,290.255 38.447,290.536 L 39.136,291.703 C 39.293,291.97 39.316,292.277 39.226,292.55 C 39.504,292.597 39.76,292.765 39.915,293.029 L 40.602,294.197 C 40.739,294.431 40.774,294.698 40.72,294.943 C 40.935,294.975 41.134,295.101 41.254,295.304 C 42.177,296.871 41.145,297.625 41.416,298.87 L 41.518,299.339 L 41.643,299.262 C 41.754,299.193 41.903,299.232 41.969,299.346 L 42.298,299.906 C 42.591,300.402 42.431,301.04 41.946,301.335 Z M 31.27,301.806 C 31.27,302.116 31.517,302.367 31.818,302.367 L 33.099,302.367 C 33.404,302.367 33.648,302.116 33.648,301.806 L 33.648,301.397 C 33.172,301.397 31.748,301.397 31.27,301.397 L 31.27,301.806 Z M 31.481,300.303 L 31.68,300.912 L 33.24,300.912 L 33.438,300.303 L 33.438,300.303 C 33.91,298.86 35.074,298.959 35.074,297.313 C 35.074,297.16 34.953,297.037 34.804,297.037 C 33.834,297.037 31.142,297.037 30.117,297.037 C 29.968,297.037 29.846,297.16 29.846,297.313 C 29.846,298.959 31.009,298.859 31.481,300.303 Z M 29.846,294.661 L 29.846,296.023 C 29.846,296.315 30.079,296.552 30.365,296.552 L 34.555,296.552 C 34.84,296.552 35.074,296.315 35.074,296.023 L 35.074,294.661 C 35.074,294.369 34.84,294.13 34.555,294.13 L 30.365,294.13 C 30.079,294.13 29.846,294.369 29.846,294.661 Z M 34.382,286.865 C 33.974,286.856 33.648,287.185 33.648,287.591 C 33.648,287.726 33.542,287.834 33.411,287.834 C 33.277,287.834 33.174,287.726 33.174,287.591 C 33.174,287.192 32.853,286.865 32.461,286.865 C 32.067,286.865 31.747,287.192 31.747,287.591 C 31.747,287.726 31.641,287.834 31.511,287.834 C 31.377,287.834 31.27,287.726 31.27,287.591 C 31.27,287.184 30.945,286.856 30.539,286.865 C 30.156,286.876 29.846,287.211 29.846,287.613 L 29.846,290.079 C 29.846,290.445 30.137,290.74 30.495,290.74 L 34.426,290.74 C 34.782,290.74 35.074,290.445 35.074,290.079 L 35.074,287.613 C 35.074,287.211 34.764,286.876 34.382,286.865 Z M 37.196,289.348 L 35.951,287.236 C 35.806,286.987 35.549,286.862 35.303,286.865 C 35.458,287.073 35.55,287.333 35.55,287.613 L 35.55,290.079 C 35.55,290.424 35.397,290.739 35.158,290.946 C 35.252,291.02 35.333,291.112 35.4,291.216 L 36.979,290.249 C 37.28,290.061 37.378,289.658 37.196,289.348 Z M 38.728,291.955 L 38.041,290.786 C 37.893,290.534 37.575,290.453 37.326,290.604 C 37.131,290.724 36.282,291.24 35.548,291.69 C 35.552,291.756 35.55,291.68 35.55,293.116 C 35.55,293.427 35.414,293.701 35.2,293.888 C 35.38,294.046 35.505,294.268 35.539,294.518 L 38.55,292.681 C 38.796,292.53 38.875,292.206 38.728,291.955 Z M 40.846,295.555 C 40.77,295.424 40.602,295.379 40.473,295.46 L 36.454,297.915 C 36.326,297.992 36.284,298.161 36.36,298.293 C 37.19,299.705 38.14,299.009 39.272,300 L 39.751,300.419 L 41.088,299.602 L 40.95,298.975 C 40.629,297.491 41.677,296.963 40.846,295.555 Z M 41.89,300.155 L 41.685,299.802 C 40.96,300.244 40.549,300.496 39.646,301.048 L 39.851,301.399 C 40.007,301.665 40.345,301.749 40.603,301.592 L 41.703,300.922 C 41.961,300.763 42.046,300.419 41.89,300.155 Z" fill="#ffffff" stroke-width="0.031" stroke-linejoin="miter" marker-start="none" marker-end="none" stroke-miterlimit="79.8403193612775"/>
     <path d="M 24.715,245.241 C 30.484,250.939 39.85,250.939 45.619,245.241 C 51.388,239.543 51.388,230.292 45.619,224.594 C 39.85,218.896 30.484,218.896 24.715,224.594 C 18.946,230.292 18.946,239.543 24.715,245.241 Z" fill="#b0851f" stroke-width="0.01" marker-start="none" marker-end="none" stroke-miterlimit="79.8403193612775"/>
     <path d="M 46.645,226.235 L 46.834,226.471 C 47.063,226.784 47.33,227.058 47.624,227.288 L 47.843,227.447 L 47.088,227.756 L 46.836,227.47 C 46.729,227.35 46.617,227.232 46.504,227.117 L 45.896,226.543 L 46.645,226.235 Z" fill="#b0851f" stroke-width="0.01" marker-start="none" marker-end="none" stroke-miterlimit="79.8403193612775"/>
     <path d="M 39.579,245.626 C 45.347,243.291 48.078,236.699 45.679,230.89 C 43.282,225.077 36.673,222.265 30.906,224.598 C 25.138,226.933 22.397,233.528 24.795,239.34 C 27.192,245.149 33.811,247.961 39.579,245.626 Z" fill="#e7e7e8" stroke-width="0.01" fill-rule="nonzero" marker-start="none" marker-end="none" stroke-miterlimit="79.8403193612775"/>
     <path d="M 39.497,245.432 C 45.158,243.145 47.829,236.669 45.479,230.971 C 43.127,225.272 36.651,222.522 30.995,224.812 C 25.336,227.102 22.657,233.555 25.007,239.256 C 27.358,244.953 33.842,247.722 39.497,245.432 Z" fill="#166733" stroke-width="0.01" fill-rule="nonzero" marker-start="none" marker-end="none" stroke-miterlimit="79.8403193612775"/>
     <g id="Group_1" stroke-linejoin="miter" stroke-width="0.157" fill="#ffffff" stroke-miterlimit="79.8403193612775">
      <path d="M 42.47,238.535 C 42.426,238.679 42.325,238.804 42.192,238.876 L 40.743,239.66 C 40.183,239.961 38.18,241.043 37.586,241.364 C 37.453,241.437 37.296,241.449 37.154,241.406 L 34.927,240.71 C 34.612,240.617 34.433,240.23 34.572,239.926 L 34.951,239.036 C 35.01,238.896 35.118,238.796 35.248,238.738 C 35.198,239.007 35.196,239.289 35.275,239.549 L 35.029,240.129 C 35.016,240.179 35.028,240.204 35.075,240.227 L 37.299,240.923 C 37.316,240.926 37.338,240.925 37.354,240.918 L 38.556,240.267 C 38.461,240.083 38.416,239.887 38.414,239.692 C 38.587,239.703 38.76,239.673 38.914,239.593 C 38.9,239.739 38.926,239.89 38.996,240.028 C 39.325,239.852 39.99,239.492 40.316,239.317 C 40.175,239.041 39.891,238.893 39.605,238.914 C 39.706,238.764 39.763,238.584 39.794,238.414 C 40.187,238.456 40.557,238.695 40.757,239.078 L 40.971,238.961 C 40.76,238.604 40.36,238.026 39.725,237.508 C 39.8,237.46 39.86,237.392 39.901,237.316 C 40.328,237.379 40.83,237.318 41.097,236.932 C 41.531,237.459 41.838,237.948 42.027,238.279 L 42.676,236.118 C 42.686,236.091 42.676,236.071 42.672,236.06 C 42.664,236.048 42.649,236.032 42.624,236.026 L 41.69,235.845 C 41.653,235.841 41.62,235.859 41.609,235.895 L 41.383,236.646 C 41.353,236.741 41.27,236.811 41.172,236.822 C 41.351,236.513 41.333,236.143 41.333,235.797 C 41.333,235.698 41.305,235.607 41.26,235.524 C 41.389,235.381 41.584,235.307 41.781,235.346 L 42.718,235.526 C 43.042,235.581 43.259,235.948 43.155,236.265 L 42.471,238.535 Z" marker-start="none" marker-end="none"/>
      <path d="M 39.838,242.398 C 38.657,242.358 38.657,240.612 39.838,240.575 C 41.021,240.612 41.021,242.358 39.838,242.398 Z" marker-start="none" marker-end="none"/>
      <path d="M 29.131,240.543 C 29.177,239.121 31.197,239.122 31.242,240.543 C 31.197,241.963 29.177,241.963 29.131,240.543 Z" marker-start="none" marker-end="none"/>
      <path d="M 32.034,241.693 C 32.072,240.49 33.786,240.49 33.824,241.693 C 33.786,242.897 32.073,242.897 32.034,241.693 Z" marker-start="none" marker-end="none"/>
      <path d="M 40.994,235.247 L 40.801,235.247 C 41.242,236.112 40.435,237.196 39.494,236.997 C 39.406,237.171 39.282,237.32 39.127,237.434 C 39.653,238.256 38.965,239.423 37.992,239.313 C 37.667,240.789 35.535,240.529 35.59,239.002 C 35.746,239.058 35.95,239.031 36.094,238.943 C 35.963,240.018 37.54,240.098 37.513,239.016 C 37.498,238.841 37.687,238.699 37.847,238.764 C 38.574,239.042 39.151,238.073 38.576,237.544 C 38.441,237.422 38.49,237.178 38.66,237.119 C 38.877,237.038 39.043,236.853 39.104,236.625 C 39.139,236.482 39.303,236.397 39.438,236.456 C 39.525,236.492 39.613,236.51 39.703,236.51 C 40.343,236.525 40.669,235.675 40.197,235.247 L 34.512,235.247 L 34.29,235.875 L 35.326,235.476 C 35.691,235.336 36.095,235.502 36.264,235.86 L 36.833,237.073 C 37.022,237.453 36.831,237.956 36.44,238.106 L 34.068,239.091 L 33.752,239.411 C 33.556,239.609 33.239,239.609 33.047,239.411 L 30.755,237.079 C 30.563,236.881 30.563,236.56 30.755,236.363 C 30.814,236.316 31.114,235.973 31.179,235.958 L 31.458,235.248 L 30.955,235.248 C 30.939,235.297 30.929,235.347 30.927,235.4 C 30.918,235.606 30.656,235.714 30.51,235.571 C 30.375,235.445 30.202,235.375 30.026,235.375 C 29.037,235.409 29.1,236.894 30.087,236.835 C 30.053,237.008 30.087,237.193 30.187,237.333 C 29.889,237.383 29.572,237.295 29.336,237.128 C 28.714,237.49 28.979,238.488 29.703,238.485 C 29.902,238.485 30.089,238.4 30.228,238.247 C 30.286,238.183 30.375,238.153 30.46,238.17 C 30.544,238.189 30.615,238.248 30.645,238.332 C 30.779,238.707 31.208,238.912 31.582,238.758 C 31.716,238.7 31.881,238.783 31.915,238.928 C 31.994,239.219 32.236,239.425 32.52,239.462 C 32.519,239.658 32.602,239.855 32.767,239.963 C 32.261,240.045 31.752,239.754 31.527,239.301 C 31.072,239.383 30.601,239.181 30.338,238.81 C 28.993,239.599 27.759,237.697 28.992,236.751 C 28.688,236.29 28.78,235.59 29.178,235.223 C 28.481,235.079 28.239,234.114 28.81,233.66 L 28.81,231.119 C 28.81,229.2 30.369,227.636 32.284,227.636 L 38.092,227.636 C 40.007,227.636 41.567,229.2 41.567,231.119 L 41.567,233.66 C 42.208,234.178 41.812,235.263 40.994,235.249 Z M 30.846,230.848 C 30.831,230.177 29.866,230.175 29.85,230.848 L 29.85,233.476 C 29.866,234.142 30.831,234.144 30.846,233.476 L 30.846,230.848 Z M 32.869,237.436 L 33.223,237.079 C 32.994,236.843 33.343,236.487 33.574,236.719 C 33.651,236.81 33.839,236.942 33.824,237.079 C 33.824,237.144 33.799,237.208 33.752,237.257 L 33.223,237.796 L 33.987,238.575 L 36.254,237.636 C 36.385,237.586 36.448,237.419 36.386,237.292 L 35.815,236.079 C 35.759,235.958 35.624,235.903 35.5,235.951 L 33.963,236.544 C 33.873,236.578 33.768,236.557 33.701,236.488 C 33.631,236.418 33.608,236.313 33.639,236.222 L 33.981,235.247 L 31.994,235.247 L 31.63,236.172 L 32.871,237.436 Z M 32.458,229.532 C 32.443,228.863 31.479,228.862 31.464,229.532 L 31.464,233.476 C 31.464,233.756 31.686,233.982 31.96,233.982 C 32.237,233.982 32.458,233.756 32.458,233.476 Z M 34.073,229.532 C 34.055,228.863 33.094,228.862 33.077,229.532 L 33.077,233.476 C 33.077,233.756 33.299,233.982 33.574,233.982 C 33.848,233.982 34.073,233.756 34.073,233.476 Z M 35.686,229.532 C 35.669,228.863 34.706,228.862 34.691,229.532 L 34.691,233.476 C 34.691,233.756 34.912,233.982 35.188,233.982 C 35.461,233.982 35.686,233.756 35.686,233.476 Z M 37.298,229.532 C 37.282,228.863 36.319,228.862 36.303,229.532 L 36.303,233.476 C 36.303,233.756 36.526,233.982 36.8,233.982 C 37.074,233.982 37.298,233.756 37.298,233.476 Z M 38.912,229.532 C 38.896,228.863 37.932,228.862 37.915,229.532 L 37.915,233.476 C 37.915,233.756 38.137,233.982 38.412,233.982 C 38.688,233.982 38.912,233.756 38.912,233.476 Z M 40.523,230.848 C 40.509,230.177 39.545,230.175 39.527,230.848 L 39.527,233.476 C 39.544,234.142 40.508,234.144 40.523,233.476 L 40.523,230.848 Z" marker-start="none" marker-end="none"/>
     </g>
     <path d="M 25.368,185.283 C 31.137,190.981 40.503,190.981 46.272,185.283 C 52.041,179.585 52.041,170.334 46.272,164.636 C 40.503,158.938 31.137,158.938 25.368,164.636 C 19.599,170.334 19.599,179.585 25.368,185.283 Z" fill="#b0851f" stroke-width="0.01" marker-start="none" marker-end="none" stroke-miterlimit="79.8403193612775"/>
     <path d="M 24.361,175.056 C 24.361,168.884 29.491,163.889 35.826,163.889 C 42.164,163.889 47.292,168.884 47.292,175.056 C 47.292,181.228 42.164,186.234 35.826,186.234 C 29.491,186.234 24.361,181.228 24.361,175.056 Z" fill="#e7e7e8" stroke-width="0.01" fill-rule="nonzero" marker-start="none" marker-end="none" stroke-miterlimit="79.8403193612775"/>
     <path d="M 24.572,175.056 C 24.572,169.003 29.613,164.106 35.826,164.106 C 42.043,164.106 47.061,169.003 47.061,175.056 C 47.061,181.11 42.043,186.009 35.826,186.009 C 29.613,186.009 24.572,181.11 24.572,175.056 Z" fill="#166733" stroke-width="0.01" fill-rule="nonzero" marker-start="none" marker-end="none" stroke-miterlimit="79.8403193612775"/>
     <path d="M 42.134,181.134 L 41.036,181.804 C 40.552,182.101 39.922,181.941 39.632,181.446 L 39.303,180.885 C 39.235,180.771 39.271,180.622 39.384,180.555 L 39.509,180.477 L 39.151,180.165 C 38.224,179.353 37.059,179.898 36.142,178.339 C 36.02,178.135 36.005,177.897 36.08,177.688 C 35.949,177.651 35.826,177.587 35.717,177.499 C 35.551,178.959 34.443,179.136 34.077,180.252 C 34.077,180.252 34.077,180.252 34.077,180.252 L 33.927,180.71 L 34.074,180.71 C 34.205,180.71 34.312,180.817 34.312,180.952 L 34.312,181.604 C 34.312,182.179 33.851,182.646 33.287,182.646 L 32.006,182.646 C 31.443,182.646 30.983,182.179 30.983,181.604 L 30.983,180.952 C 30.983,180.817 31.09,180.71 31.222,180.71 L 31.368,180.71 L 31.218,180.252 C 30.832,179.07 29.558,178.928 29.558,177.11 C 29.558,176.873 29.665,176.659 29.834,176.52 C 29.663,176.337 29.558,176.091 29.558,175.821 L 29.558,174.457 C 29.558,174.148 29.694,173.871 29.907,173.686 C 29.694,173.499 29.558,173.224 29.558,172.912 L 29.558,171.551 C 29.558,171.222 29.712,170.931 29.949,170.744 C 29.71,170.535 29.558,170.222 29.558,169.876 L 29.558,167.41 C 29.558,166.748 30.076,166.194 30.716,166.178 C 31.114,166.165 31.471,166.355 31.698,166.66 C 32.176,166.015 33.12,166.015 33.599,166.66 C 33.939,166.2 34.534,166.056 35.025,166.28 C 35.53,166.046 36.216,166.218 36.546,166.78 L 37.791,168.897 C 37.967,169.193 37.992,169.541 37.894,169.847 C 38.19,169.881 38.472,170.051 38.635,170.333 L 39.324,171.5 C 39.481,171.767 39.504,172.076 39.413,172.347 C 39.692,172.394 39.948,172.561 40.103,172.825 L 40.79,173.995 C 40.927,174.227 40.963,174.495 40.908,174.739 C 41.123,174.77 41.322,174.897 41.442,175.102 C 42.364,176.666 41.333,177.422 41.602,178.667 L 41.707,179.136 L 41.831,179.059 C 41.942,178.991 42.091,179.029 42.157,179.141 L 42.486,179.704 C 42.777,180.196 42.619,180.837 42.134,181.134 Z M 31.458,181.604 C 31.458,181.912 31.705,182.163 32.006,182.163 L 33.287,182.163 C 33.592,182.163 33.836,181.912 33.836,181.604 L 33.836,181.194 C 33.36,181.194 31.936,181.194 31.458,181.194 L 31.458,181.604 Z M 31.669,180.1 L 31.868,180.71 L 33.428,180.71 L 33.626,180.1 L 33.626,180.1 C 34.098,178.657 35.262,178.755 35.262,177.11 C 35.262,176.956 35.141,176.832 34.992,176.832 C 34.022,176.832 31.33,176.832 30.305,176.832 C 30.156,176.832 30.034,176.956 30.034,177.11 C 30.034,178.755 31.197,178.655 31.669,180.1 Z M 30.034,174.457 L 30.034,175.82 C 30.034,176.112 30.267,176.349 30.553,176.349 L 34.743,176.349 C 35.028,176.349 35.262,176.112 35.262,175.82 L 35.262,174.457 C 35.262,174.165 35.028,173.927 34.743,173.927 L 30.553,173.927 C 30.267,173.927 30.034,174.165 30.034,174.457 Z M 34.57,166.66 C 34.162,166.651 33.836,166.982 33.836,167.387 C 33.836,167.522 33.73,167.63 33.599,167.63 C 33.466,167.63 33.362,167.522 33.362,167.387 C 33.362,166.987 33.041,166.66 32.649,166.66 C 32.255,166.66 31.935,166.987 31.935,167.387 C 31.935,167.522 31.829,167.63 31.698,167.63 C 31.565,167.63 31.458,167.522 31.458,167.387 C 31.458,166.981 31.133,166.651 30.727,166.66 C 30.344,166.672 30.034,167.007 30.034,167.41 L 30.034,169.876 C 30.034,170.24 30.325,170.536 30.683,170.536 L 34.614,170.536 C 34.97,170.536 35.262,170.24 35.262,169.876 L 35.262,167.41 C 35.262,167.007 34.952,166.672 34.57,166.66 Z M 37.384,169.144 L 36.139,167.031 C 35.994,166.785 35.737,166.659 35.492,166.66 C 35.646,166.871 35.738,167.131 35.738,167.41 L 35.738,169.876 C 35.738,170.221 35.586,170.535 35.345,170.744 C 35.44,170.818 35.521,170.907 35.588,171.013 L 37.167,170.047 C 37.468,169.858 37.566,169.454 37.384,169.144 Z M 38.916,171.751 L 38.229,170.582 C 38.081,170.331 37.762,170.25 37.514,170.398 C 37.319,170.52 36.47,171.039 35.736,171.486 C 35.74,171.554 35.738,171.476 35.738,172.912 C 35.738,173.224 35.602,173.499 35.387,173.686 C 35.568,173.842 35.693,174.064 35.727,174.316 L 38.738,172.478 C 38.985,172.325 39.064,172.001 38.916,171.751 Z M 41.034,175.35 C 40.958,175.219 40.79,175.176 40.661,175.255 L 36.642,177.712 C 36.514,177.79 36.472,177.958 36.548,178.09 C 37.378,179.502 38.328,178.806 39.46,179.797 L 39.939,180.214 L 41.276,179.399 L 41.138,178.77 C 40.817,177.288 41.865,176.762 41.034,175.35 Z M 42.078,179.952 L 41.873,179.599 C 41.148,180.042 40.737,180.294 39.834,180.845 L 40.039,181.196 C 40.195,181.46 40.533,181.547 40.792,181.388 L 41.891,180.719 C 42.149,180.56 42.234,180.214 42.078,179.952 Z" fill="#ffffff" stroke-width="0.031" stroke-linejoin="miter" marker-start="none" marker-end="none" stroke-miterlimit="79.8403193612775"/>
     <path d="M 34.265,106.839 L 38.565,106.849 L 38.818,127.277 L 34.517,127.267 L 34.265,106.839 Z" fill="#b0851f" stroke-linejoin="miter" marker-start="none" marker-end="none"/>
     <path d="M 25.337,125.356 C 31.106,131.054 40.472,131.054 46.241,125.356 C 52.01,119.658 52.011,110.407 46.242,104.709 C 40.473,99.011 31.107,99.011 25.338,104.709 C 19.569,110.407 19.568,119.658 25.337,125.356 Z" fill="#b0851f" stroke-width="0.01" marker-start="none" marker-end="none" stroke-miterlimit="79.8403193612775"/>
     <path d="M 47.004,106.313 L 47.194,106.549 C 47.424,106.863 47.691,107.136 47.984,107.366 L 48.203,107.525 L 47.449,107.834 L 47.196,107.548 C 47.088,107.428 46.978,107.31 46.865,107.194 L 46.256,106.621 L 47.004,106.313 Z" fill="#b0851f" stroke-width="0.01" marker-start="none" marker-end="none" stroke-miterlimit="79.8403193612775"/>
     <path d="M 39.939,125.704 C 45.706,123.369 48.438,116.777 46.04,110.967 C 43.643,105.156 37.033,102.342 31.267,104.676 C 25.499,107.009 22.757,113.607 25.157,119.417 C 27.552,125.228 34.172,128.038 39.939,125.704 Z" fill="#e7e7e8" stroke-width="0.01" fill-rule="nonzero" marker-start="none" marker-end="none" stroke-miterlimit="79.8403193612775"/>
     <path d="M 39.859,125.511 C 45.517,123.223 48.188,116.747 45.84,111.049 C 43.489,105.35 37.011,102.599 31.355,104.891 C 25.697,107.179 23.017,113.633 25.368,119.333 C 27.72,125.03 34.203,127.801 39.859,125.511 Z" fill="#166733" stroke-width="0.01" fill-rule="nonzero" marker-start="none" marker-end="none" stroke-miterlimit="79.8403193612775"/>
     <g id="Group_2" stroke-linejoin="miter" stroke-width="0.157" fill="#ffffff" stroke-miterlimit="79.8403193612775">
      <path d="M 42.83,118.612 C 42.788,118.757 42.686,118.882 42.553,118.954 L 41.101,119.738 C 40.542,120.04 38.541,121.122 37.945,121.442 C 37.813,121.515 37.657,121.529 37.514,121.485 L 35.287,120.788 C 34.97,120.694 34.795,120.309 34.932,120.005 L 35.312,119.115 C 35.37,118.974 35.479,118.874 35.609,118.817 C 35.557,119.085 35.556,119.366 35.636,119.627 L 35.39,120.207 C 35.376,120.256 35.389,120.282 35.436,120.303 L 37.659,121.001 C 37.676,121.004 37.698,121.004 37.713,120.996 L 38.917,120.344 C 38.823,120.162 38.777,119.966 38.775,119.77 C 38.948,119.782 39.12,119.752 39.276,119.67 C 39.26,119.818 39.286,119.968 39.356,120.106 C 39.685,119.93 40.352,119.57 40.676,119.394 C 40.536,119.12 40.251,118.972 39.964,118.992 C 40.067,118.841 40.123,118.662 40.153,118.491 C 40.548,118.534 40.917,118.772 41.117,119.156 L 41.331,119.039 C 41.119,118.683 40.721,118.105 40.085,117.586 C 40.161,117.537 40.221,117.47 40.263,117.393 C 40.687,117.456 41.191,117.397 41.457,117.012 C 41.892,117.536 42.2,118.027 42.387,118.357 L 43.038,116.195 C 43.046,116.169 43.037,116.15 43.031,116.137 C 43.025,116.126 43.009,116.11 42.985,116.104 L 42.05,115.923 C 42.014,115.918 41.98,115.938 41.97,115.974 L 41.742,116.724 C 41.714,116.82 41.631,116.889 41.532,116.9 C 41.712,116.591 41.694,116.221 41.693,115.876 C 41.693,115.777 41.665,115.685 41.62,115.602 C 41.75,115.46 41.944,115.385 42.141,115.424 L 43.078,115.605 C 43.402,115.659 43.619,116.026 43.514,116.344 L 42.832,118.612 Z" marker-start="none" marker-end="none"/>
      <path d="M 40.199,122.476 C 39.017,122.436 39.017,120.691 40.199,120.652 C 41.382,120.691 41.382,122.436 40.199,122.476 Z" marker-start="none" marker-end="none"/>
      <path d="M 29.491,120.62 C 29.536,119.199 31.557,119.2 31.602,120.62 C 31.557,122.041 29.536,122.041 29.491,120.62 Z" marker-start="none" marker-end="none"/>
      <path d="M 32.395,121.77 C 32.431,120.567 34.147,120.567 34.184,121.77 C 34.147,122.976 32.432,122.976 32.395,121.77 Z" marker-start="none" marker-end="none"/>
      <path d="M 41.354,115.325 L 41.16,115.325 C 41.603,116.191 40.794,117.274 39.854,117.074 C 39.767,117.248 39.643,117.397 39.488,117.512 C 40.012,118.335 39.325,119.501 38.353,119.391 C 38.028,120.869 35.896,120.607 35.949,119.081 C 36.106,119.135 36.31,119.108 36.453,119.021 C 36.323,120.095 37.899,120.177 37.873,119.095 C 37.857,118.919 38.047,118.775 38.207,118.841 C 38.932,119.12 39.51,118.151 38.937,117.62 C 38.803,117.5 38.849,117.256 39.021,117.197 C 39.238,117.116 39.404,116.931 39.465,116.703 C 39.499,116.561 39.665,116.476 39.798,116.533 C 39.884,116.569 39.974,116.588 40.065,116.588 C 40.703,116.604 41.029,115.753 40.558,115.325 L 34.872,115.325 L 34.651,115.953 L 35.686,115.554 C 36.051,115.415 36.455,115.579 36.623,115.939 L 37.195,117.151 C 37.382,117.532 37.192,118.033 36.802,118.185 L 34.429,119.168 L 34.112,119.49 C 33.916,119.688 33.599,119.688 33.407,119.49 L 31.117,117.157 C 30.923,116.959 30.923,116.639 31.117,116.441 C 31.175,116.394 31.474,116.051 31.539,116.036 L 31.819,115.326 L 31.315,115.326 C 31.3,115.375 31.29,115.426 31.287,115.477 C 31.279,115.684 31.016,115.793 30.87,115.648 C 30.735,115.522 30.562,115.453 30.385,115.453 C 29.396,115.487 29.46,116.973 30.446,116.914 C 30.413,117.086 30.446,117.271 30.547,117.411 C 30.249,117.462 29.933,117.371 29.696,117.207 C 29.075,117.569 29.339,118.566 30.063,118.563 C 30.262,118.563 30.449,118.479 30.588,118.325 C 30.647,118.26 30.735,118.231 30.82,118.248 C 30.904,118.267 30.976,118.327 31.004,118.41 C 31.14,118.785 31.567,118.99 31.944,118.836 C 32.076,118.777 32.242,118.86 32.277,119.006 C 32.354,119.297 32.595,119.504 32.881,119.54 C 32.879,119.737 32.962,119.932 33.128,120.042 C 32.621,120.123 32.112,119.832 31.887,119.379 C 31.433,119.461 30.962,119.26 30.697,118.888 C 29.352,119.678 28.119,117.776 29.352,116.831 C 29.048,116.369 29.142,115.669 29.537,115.3 C 28.839,115.157 28.6,114.191 29.168,113.737 L 29.168,111.197 C 29.168,109.278 30.729,107.713 32.644,107.713 L 38.452,107.713 C 40.367,107.713 41.927,109.278 41.927,111.197 L 41.927,113.737 C 42.568,114.256 42.172,115.341 41.355,115.327 Z M 31.206,110.926 C 31.19,110.256 30.227,110.254 30.21,110.926 L 30.21,113.553 C 30.226,114.221 31.19,114.224 31.206,113.553 L 31.206,110.926 Z M 33.23,117.513 L 33.582,117.157 C 33.354,116.92 33.704,116.565 33.934,116.799 C 34.013,116.888 34.198,117.019 34.184,117.157 C 34.184,117.222 34.16,117.287 34.112,117.334 L 33.583,117.875 L 34.348,118.653 L 36.616,117.714 C 36.745,117.664 36.807,117.496 36.746,117.37 L 36.177,116.156 C 36.12,116.036 35.984,115.982 35.862,116.03 L 34.324,116.623 C 34.233,116.657 34.129,116.635 34.061,116.565 C 33.991,116.498 33.968,116.392 34,116.3 L 34.343,115.325 L 32.356,115.325 L 31.992,116.251 L 33.232,117.513 Z M 32.82,109.61 C 32.802,108.942 31.84,108.94 31.824,109.61 L 31.824,113.553 C 31.824,113.834 32.047,114.061 32.321,114.061 C 32.596,114.061 32.82,113.834 32.82,113.553 Z M 34.431,109.61 C 34.417,108.942 33.453,108.94 33.438,109.61 L 33.438,113.553 C 33.438,113.834 33.66,114.061 33.934,114.061 C 34.209,114.061 34.431,113.834 34.431,113.553 Z M 36.047,109.61 C 36.029,108.942 35.068,108.94 35.05,109.61 L 35.05,113.553 C 35.05,113.834 35.273,114.061 35.547,114.061 C 35.822,114.061 36.047,113.834 36.047,113.553 Z M 37.659,109.61 C 37.644,108.942 36.679,108.94 36.662,109.61 L 36.662,113.553 C 36.662,113.834 36.887,114.061 37.161,114.061 C 37.435,114.061 37.659,113.834 37.659,113.553 Z M 39.273,109.61 C 39.256,108.942 38.292,108.94 38.274,109.61 L 38.274,113.553 C 38.274,113.834 38.497,114.061 38.772,114.061 C 39.047,114.061 39.273,113.834 39.273,113.553 Z M 40.884,110.926 C 40.869,110.256 39.905,110.254 39.887,110.926 L 39.887,113.553 C 39.905,114.221 40.869,114.224 40.884,113.553 L 40.884,110.926 Z" marker-start="none" marker-end="none"/>
     </g>
     <text xml:space="preserve" transform="translate(59.88 302.346) scale(1 -1) scale(1.00696 1)" stroke-width="0.141" stroke-linejoin="round" stroke-linecap="round" stroke-miterlimit="79.8403193612775"><tspan x="0" y="0" font-size="7.861" font-family="TT Chocolates" fill="#166733">1. Collecting &amp; Sorting</tspan><tspan x="0" y="12.026" font-family="TT Chocolates Light" fill="#000000" font-size="5.614">W</tspan><tspan x="5.02007031155292" y="12.026" font-family="TT Chocolates Light" fill="#000000" font-size="5.614">e c</tspan><tspan x="12.0163898654382" y="12.026" font-family="TT Chocolates Light" fill="#000000" font-size="5.614">ollect c</tspan><tspan x="29.203799733301" y="12.026" font-family="TT Chocolates Light" fill="#000000" font-size="5.614">olor sort and r</tspan><tspan x="61.6699003515578" y="12.026" font-family="TT Chocolates Light" fill="#000000" font-size="5.614">emo</tspan><tspan x="72.3833560431568" y="12.026" font-family="TT Chocolates Light" fill="#000000" font-size="5.614">v</tspan><tspan x="74.8045096375318" y="12.026" font-family="TT Chocolates Light" fill="#000000" font-size="5.614">e </tspan><tspan x="0" y="17.752" font-size="5.614" font-family="TT Chocolates Light" fill="#000000">labels fr</tspan><tspan x="18.1189283549521" y="17.752" font-size="5.614" font-family="TT Chocolates Light" fill="#000000">om r</tspan><tspan x="28.7420128500424" y="17.752" font-size="5.614" font-family="TT Chocolates Light" fill="#000000">ec</tspan><tspan x="34.5019352648806" y="17.752" font-size="5.614" font-family="TT Chocolates Light" fill="#000000">o</tspan><tspan x="37.5566803248879" y="17.752" font-size="5.614" font-family="TT Chocolates Light" fill="#000000">v</tspan><tspan x="39.9778339192629" y="17.752" font-size="5.614" font-family="TT Chocolates Light" fill="#000000">er</tspan><tspan x="44.5698824099891" y="17.752" font-size="5.614" font-family="TT Chocolates Light" fill="#000000">ed pet bottles</tspan></text>
     <text xml:space="preserve" transform="translate(61.092 240.308) scale(1 -1) scale(1.00696 1)" stroke-width="0.141" stroke-linejoin="round" stroke-linecap="round" stroke-miterlimit="79.8403193612775"><tspan x="0" y="0" font-size="7.861" font-family="TT Chocolates" fill="#166733">2. </tspan><tspan x="7.6040906776579" y="0" font-size="7.861" font-family="TT Chocolates" fill="#166733">W</tspan><tspan x="14.6560232755486" y="0" font-size="7.861" font-family="TT Chocolates" fill="#166733">ashing</tspan><tspan x="0" y="12.026" font-family="TT Chocolates Light" fill="#000000" font-size="5.614">W</tspan><tspan x="5.02007031155292" y="12.026" font-family="TT Chocolates Light" fill="#000000" font-size="5.614">e c</tspan><tspan x="12.0163898654382" y="12.026" font-family="TT Chocolates Light" fill="#000000" font-size="5.614">ollect c</tspan><tspan x="29.203799733301" y="12.026" font-family="TT Chocolates Light" fill="#000000" font-size="5.614">olor sort and r</tspan><tspan x="61.6699003515578" y="12.026" font-family="TT Chocolates Light" fill="#000000" font-size="5.614">emo</tspan><tspan x="72.3833560431568" y="12.026" font-family="TT Chocolates Light" fill="#000000" font-size="5.614">v</tspan><tspan x="74.8045096375318" y="12.026" font-family="TT Chocolates Light" fill="#000000" font-size="5.614">e </tspan><tspan x="0" y="17.752" font-size="5.614" fill="#000000" font-family="TT Chocolates Light">labels fr</tspan><tspan x="18.1189283549521" y="17.752" font-size="5.614" fill="#000000" font-family="TT Chocolates Light">om r</tspan><tspan x="28.7420128500424" y="17.752" font-size="5.614" fill="#000000" font-family="TT Chocolates Light">ec</tspan><tspan x="34.5019352648806" y="17.752" font-size="5.614" fill="#000000" font-family="TT Chocolates Light">o</tspan><tspan x="37.5566803248879" y="17.752" font-size="5.614" fill="#000000" font-family="TT Chocolates Light">v</tspan><tspan x="39.9778339192629" y="17.752" font-size="5.614" fill="#000000" font-family="TT Chocolates Light">er</tspan><tspan x="44.5698824099891" y="17.752" font-size="5.614" fill="#000000" font-family="TT Chocolates Light">ed pet bottles</tspan></text>
     <text xml:space="preserve" transform="translate(61.556 181.754) scale(1 -1) scale(1.00696 1)" font-family="TT Chocolates" stroke-width="0.141" stroke-linejoin="round" stroke-linecap="round" stroke-miterlimit="79.8403193612775"><tspan x="0" y="0" font-size="7.861" fill="#166733">3. Crushing</tspan><tspan x="0" y="12.026" fill="#000000" font-size="5.614">W</tspan><tspan x="4.98133979876349" y="12.026" fill="#000000" font-size="5.614">e c</tspan><tspan x="11.9101292277852" y="12.026" fill="#000000" font-size="5.614">ollect c</tspan><tspan x="29.1015114559341" y="12.026" fill="#000000" font-size="5.614">olor sort and r</tspan><tspan x="61.7682162686386" y="12.026" fill="#000000" font-size="5.614">emo</tspan><tspan x="72.4359898169475" y="12.026" fill="#000000" font-size="5.614">v</tspan><tspan x="74.8055027276033" y="12.026" fill="#000000" font-size="5.614">e </tspan><tspan x="0" y="17.752" font-size="5.614" fill="#000000">labels fr</tspan><tspan x="18.2837813068251" y="17.752" font-size="5.614" fill="#000000">om r</tspan><tspan x="28.9594995757062" y="17.752" font-size="5.614" fill="#000000">ec</tspan><tspan x="34.6518918656807" y="17.752" font-size="5.614" fill="#000000">o</tspan><tspan x="37.6847889441144" y="17.752" font-size="5.614" fill="#000000">v</tspan><tspan x="40.0543018547703" y="17.752" font-size="5.614" fill="#000000">er</tspan><tspan x="44.6632328767123" y="17.752" font-size="5.614" fill="#000000">ed pet bottles</tspan></text>
     <text xml:space="preserve" transform="translate(61.36 121.781) scale(1 -1) scale(1.00696 1)" stroke-width="0.141" stroke-linejoin="round" stroke-linecap="round" stroke-miterlimit="79.8403193612775"><tspan x="0" y="0" font-size="7.861" font-family="TT Chocolates" fill="#166733">4. Bailing</tspan><tspan x="0" y="12.026" font-family="TT Chocolates Light" fill="#000000" font-size="5.614">W</tspan><tspan x="5.02007031155292" y="12.026" font-family="TT Chocolates Light" fill="#000000" font-size="5.614">e c</tspan><tspan x="12.0163898654382" y="12.026" font-family="TT Chocolates Light" fill="#000000" font-size="5.614">ollect c</tspan><tspan x="29.203799733301" y="12.026" font-family="TT Chocolates Light" fill="#000000" font-size="5.614">olor sort and r</tspan><tspan x="61.6699003515578" y="12.026" font-family="TT Chocolates Light" fill="#000000" font-size="5.614">emo</tspan><tspan x="72.3833560431568" y="12.026" font-family="TT Chocolates Light" fill="#000000" font-size="5.614">v</tspan><tspan x="74.8045096375318" y="12.026" font-family="TT Chocolates Light" fill="#000000" font-size="5.614">e </tspan><tspan x="0" y="17.752" font-family="TT Chocolates Light" fill="#000000" font-size="5.614">labels fr</tspan><tspan x="18.1189283549521" y="17.752" font-family="TT Chocolates Light" fill="#000000" font-size="5.614">om r</tspan><tspan x="28.7420128500424" y="17.752" font-family="TT Chocolates Light" fill="#000000" font-size="5.614">ec</tspan><tspan x="34.5019352648806" y="17.752" font-family="TT Chocolates Light" fill="#000000" font-size="5.614">o</tspan><tspan x="37.5566803248879" y="17.752" font-family="TT Chocolates Light" fill="#000000" font-size="5.614">v</tspan><tspan x="39.9778339192629" y="17.752" font-family="TT Chocolates Light" fill="#000000" font-size="5.614">er</tspan><tspan x="44.5698824099891" y="17.752" font-family="TT Chocolates Light" fill="#000000" font-size="5.614">ed pet bottles</tspan></text>
     <path d="M 32.12,248.928 L 37.864,248.94 L 38.201,281.065 L 32.457,281.053 L 32.12,248.928 Z" fill="#b0851f" stroke-linejoin="miter" marker-start="none" marker-end="none"/>
     <path d="M 32.12,188.786 L 37.864,188.798 L 38.201,220.923 L 32.457,220.911 L 32.12,188.786 Z" fill="#b0851f" stroke-linejoin="miter" marker-start="none" marker-end="none"/>
     <path d="M 32.12,128.909 L 37.864,128.922 L 38.201,161.422 L 32.457,161.409 L 32.12,128.909 Z" fill="#b0851f" stroke-linejoin="miter" marker-start="none" marker-end="none"/>
    </g>
   </g>
   <g id="Layer 0"/>
   <g id="Glosskode emf.emf">
    <text xml:space="preserve" transform="translate(44262.6 -49490) scale(1 -1) scale(1.17894 1)" font-size="8375.694" stroke="none" fill="#ffffff" font-family="Montserrat Italic"><tspan x="0" y="0" font-style="italic">E</tspan><tspan x="6054.5244828702" y="0" font-style="italic">m</tspan><tspan x="13071.332181044" y="0" font-style="italic">p</tspan><tspan x="18197.5505858173" y="0" font-style="italic">o</tspan><tspan x="23212.0576056327" y="0" font-style="italic">w</tspan><tspan x="29625.189027607" y="0" font-style="italic">e</tspan><tspan x="34295.9829983304" y="0" font-style="italic">r</tspan><tspan x="38441.7637411957" y="0" font-style="italic">i</tspan><tspan x="41707.1814808123" y="0" font-style="italic">n</tspan><tspan x="46863.1893620491" y="0" font-style="italic">g </tspan><tspan x="54083.3314425792" y="0" font-style="italic">y</tspan><tspan x="58642.4140283447" y="0" font-style="italic">o</tspan><tspan x="63768.6324331181" y="0" font-style="italic">u</tspan><tspan x="68909.7455761231" y="0" font-style="italic">r </tspan><tspan x="75201.5815785563" y="0" font-style="italic">d</tspan><tspan x="80342.6947215614" y="0" font-style="italic">i</tspan><tspan x="83623.0071994098" y="0" font-style="italic">g</tspan><tspan x="88764.1203424149" y="0" font-style="italic">i</tspan><tspan x="92029.5380820315" y="0" font-style="italic">t</tspan><tspan x="95153.4549602268" y="0" font-style="italic">a</tspan><tspan x="100294.568103232" y="0" font-style="italic">l </tspan><tspan x="105653.909518605" y="0" font-style="italic">j</tspan><tspan x="108934.221996454" y="0" font-style="italic">o</tspan><tspan x="114060.440401227" y="0" font-style="italic">u</tspan><tspan x="119186.658806" y="0" font-style="italic">r</tspan><tspan x="123332.439548866" y="0" font-style="italic">n</tspan><tspan x="128473.552691871" y="0" font-style="italic">e</tspan><tspan x="133062.425602319" y="0" font-style="italic">y</tspan></text>
   </g>
   <g id="slogan.emf"/>
   <g id="folicacid.emf"/>
   <g id="Imported SVG Document (5)"/>
   <g id="SVG Document"/>
  </g>
 </g>
</svg>
